<svg aria-hidden="true" style="position: absolute; width: 0; height: 0; overflow: hidden;"
    version="1.1" xmlns="http://www.w3.org/2000/svg" xmlns:xlink="http://www.w3.org/1999/xlink">
    <defs>
        <symbol id="icon-logo" viewBox="0 0 69 32">
            <path fill="#fefefe" style="fill: var(--color1, #fefefe)"
                d="M43.501 5.386l-0.559 1.872c-0.048 0.192-0.020 0.394 0.077 0.566s0.257 0.3 0.446 0.358 0.393 0.041 0.569-0.047c0.177-0.088 0.313-0.24 0.381-0.426l0.402-1.315h5.721l3.024 4.055-1.434 4.917h-0.847c-0.204 0-0.401 0.081-0.545 0.226s-0.226 0.341-0.226 0.545 0.081 0.401 0.226 0.545c0.145 0.145 0.341 0.226 0.545 0.226h1.424c0.168-0.004 0.331-0.062 0.463-0.166s0.227-0.249 0.269-0.411l1.702-5.839c0.033-0.114 0.039-0.234 0.018-0.351s-0.069-0.227-0.139-0.323l-3.486-4.675c-0.071-0.094-0.162-0.17-0.267-0.222s-0.221-0.080-0.338-0.080h-6.692c-0.165-0-0.325 0.053-0.457 0.151s-0.23 0.236-0.278 0.393z"></path>
            <path fill="#fefefe" style="fill: var(--color1, #fefefe)"
                d="M42.992 15.353h-12.323c-0.204 0-0.401 0.081-0.545 0.226s-0.226 0.341-0.226 0.545c0 0.204 0.081 0.401 0.226 0.545s0.341 0.226 0.545 0.226h12.323c0.205 0 0.401-0.081 0.545-0.226s0.226-0.341 0.226-0.545c0-0.205-0.081-0.401-0.226-0.545s-0.341-0.226-0.545-0.226z"></path>
            <path fill="#fefefe" style="fill: var(--color1, #fefefe)"
                d="M44.597 16.124c-0.417 1.364 0.351 2.468 1.712 2.468s2.806-1.104 3.224-2.468c0.417-1.364-0.351-2.468-1.715-2.468s-2.806 1.104-3.221 2.468zM48.035 16.124c-0.091 0.269-0.26 0.506-0.486 0.678s-0.498 0.275-0.782 0.292c-0.118 0.006-0.236-0.018-0.342-0.070s-0.197-0.13-0.265-0.228c-0.068-0.097-0.109-0.21-0.121-0.328s0.007-0.237 0.054-0.345c0.091-0.269 0.26-0.505 0.485-0.678s0.498-0.273 0.782-0.29c0.118-0.007 0.236 0.017 0.342 0.069s0.198 0.13 0.265 0.227c0.068 0.097 0.109 0.21 0.121 0.327s-0.007 0.236-0.054 0.345z"></path>
            <path fill="#fefefe" style="fill: var(--color1, #fefefe)"
                d="M23.89 16.124c-0.414 1.364 0.351 2.468 1.715 2.468s2.806-1.104 3.221-2.468c0.414-1.364-0.348-2.468-1.712-2.468s-2.818 1.104-3.224 2.468zM27.328 16.124c-0.090 0.27-0.259 0.506-0.485 0.68s-0.498 0.274-0.782 0.291c-0.118 0.006-0.236-0.018-0.342-0.070s-0.197-0.131-0.265-0.228c-0.067-0.097-0.109-0.21-0.12-0.328s0.008-0.237 0.056-0.345c0.090-0.27 0.259-0.506 0.485-0.678s0.498-0.273 0.782-0.289c0.117-0.005 0.233 0.020 0.338 0.073s0.194 0.131 0.26 0.228 0.106 0.209 0.117 0.326c0.011 0.117-0.009 0.234-0.056 0.341h0.012z"></path>
            <path fill="#fefefe" style="fill: var(--color1, #fefefe)"
                d="M24.964 1.539h19.704l-0.387 1.27c-0.048 0.192-0.020 0.394 0.077 0.566s0.257 0.3 0.446 0.358 0.393 0.041 0.569-0.047c0.177-0.088 0.313-0.24 0.381-0.426l0.692-2.265c0.036-0.117 0.044-0.24 0.024-0.36s-0.069-0.234-0.142-0.332c-0.071-0.093-0.163-0.169-0.267-0.221s-0.22-0.080-0.337-0.081h-21.328c-0.165-0-0.326 0.053-0.459 0.151s-0.231 0.236-0.279 0.394l-1.618 5.295h1.609l1.315-4.3z"></path>
            <path fill="#fefefe" style="fill: var(--color1, #fefefe)"
                d="M22.871 16.124c0-0.204-0.081-0.401-0.226-0.545s-0.341-0.226-0.545-0.226h-1.358l2.437-7.974h-1.612l-0.429 1.406h-2.967c-0.105-0.007-0.21 0.008-0.31 0.044s-0.19 0.091-0.267 0.163c-0.077 0.072-0.138 0.159-0.18 0.256s-0.063 0.201-0.063 0.306 0.022 0.21 0.063 0.306c0.042 0.097 0.103 0.184 0.18 0.256s0.167 0.128 0.267 0.163c0.099 0.036 0.204 0.051 0.31 0.044h2.495l-1.703 5.576c-0.036 0.115-0.044 0.237-0.024 0.355s0.068 0.231 0.139 0.328c0.072 0.092 0.164 0.167 0.268 0.22s0.22 0.081 0.337 0.083h2.401c0.205 0 0.401-0.081 0.545-0.226s0.226-0.341 0.226-0.545z"></path>
            <path fill="#fefefe" style="fill: var(--color1, #fefefe)"
                d="M5.803 23.127c-0.251-0.179-0.535-0.308-0.835-0.381-0.37-0.084-0.749-0.124-1.128-0.118h-1.273c-0.188-0.008-0.376 0.009-0.559 0.051-0.14 0.040-0.269 0.11-0.378 0.206-0.109 0.1-0.196 0.221-0.254 0.357-0.073 0.169-0.129 0.346-0.166 0.526l-1.146 4.959c-0.041 0.158-0.062 0.321-0.064 0.484 0 0.109 0.035 0.215 0.1 0.302 0.078 0.090 0.185 0.149 0.302 0.169 0.165 0.041 0.335 0.063 0.505 0.063h1.452c0.505 0.004 1.007-0.083 1.482-0.257 0.455-0.165 0.876-0.412 1.243-0.729 0.373-0.327 0.689-0.715 0.934-1.146 0.265-0.473 0.46-0.983 0.578-1.512 0.147-0.573 0.147-1.175 0-1.748-0.12-0.489-0.4-0.925-0.795-1.237l0.003 0.009zM12.25 25.036c-0.174-0.23-0.4-0.416-0.659-0.541-0.302-0.145-0.635-0.217-0.971-0.209-0.372-0.001-0.74 0.072-1.083 0.215-0.351 0.147-0.675 0.351-0.959 0.605-0.296 0.261-0.55 0.567-0.75 0.907-0.211 0.348-0.365 0.728-0.457 1.125-0.090 0.365-0.107 0.744-0.051 1.116 0.049 0.32 0.172 0.623 0.36 0.886 0.186 0.25 0.431 0.449 0.714 0.581 0.316 0.144 0.66 0.215 1.007 0.209 0.322 0.002 0.644-0.039 0.956-0.121 0.279-0.068 0.549-0.17 0.804-0.302 0.218-0.127 0.415-0.287 0.584-0.475 0.136-0.126 0.234-0.287 0.284-0.466 0.023-0.074 0.029-0.152 0.017-0.228s-0.040-0.149-0.084-0.213c-0.050-0.059-0.113-0.106-0.185-0.135s-0.149-0.041-0.226-0.034c-0.105 0.006-0.208 0.034-0.302 0.082l-0.399 0.175c-0.156 0.067-0.316 0.125-0.478 0.175-0.179 0.053-0.364 0.079-0.55 0.079-0.276 0.019-0.549-0.069-0.762-0.245-0.090-0.090-0.155-0.2-0.191-0.322s-0.041-0.25-0.014-0.374h2.779c0.115 0.001 0.231-0.007 0.345-0.024 0.093-0.015 0.182-0.048 0.263-0.097 0.078-0.048 0.142-0.114 0.187-0.194 0.055-0.103 0.095-0.213 0.118-0.327 0.081-0.329 0.096-0.672 0.045-1.007-0.048-0.299-0.164-0.584-0.339-0.832l-0.003-0.009zM11.113 26.484h-2.041c0.107-0.275 0.288-0.515 0.523-0.692 0.211-0.162 0.469-0.25 0.735-0.251 0.114-0.003 0.227 0.019 0.332 0.064s0.198 0.113 0.273 0.199c0.082 0.093 0.142 0.203 0.173 0.323s0.034 0.245 0.008 0.366l-0.003-0.009zM15.634 22.105c-0.514 0-0.862 0.387-1.037 1.152l-1.249 5.407c-0.179 0.768-0.010 1.152 0.508 1.152 0.124 0.006 0.248-0.016 0.363-0.065s0.216-0.124 0.297-0.219c0.195-0.254 0.326-0.552 0.381-0.868l1.249-5.407c0.171-0.766 0.001-1.15-0.511-1.152zM18.319 24.349c-0.516 0-0.862 0.381-1.037 1.143l-0.732 3.172c-0.177 0.768-0.008 1.152 0.508 1.152 0.122 0.004 0.244-0.019 0.356-0.068s0.212-0.123 0.291-0.216c0.195-0.254 0.326-0.552 0.381-0.868l0.735-3.172c0.175-0.762 0.006-1.143-0.502-1.143zM18.837 22.105c-0.256 0.006-0.501 0.102-0.693 0.272-0.205 0.163-0.349 0.391-0.408 0.647-0.032 0.107-0.038 0.221-0.020 0.331s0.061 0.215 0.126 0.307c0.065 0.088 0.151 0.159 0.251 0.205s0.209 0.067 0.318 0.061c0.124-0.001 0.247-0.024 0.363-0.070 0.12-0.046 0.23-0.112 0.327-0.197 0.1-0.086 0.184-0.189 0.251-0.302 0.072-0.107 0.124-0.227 0.151-0.354 0.030-0.106 0.037-0.217 0.020-0.326s-0.058-0.212-0.12-0.303c-0.065-0.088-0.15-0.159-0.249-0.207s-0.208-0.070-0.317-0.065zM24.059 24.349c-0.354 0-0.644 0.224-0.88 0.671l-1.488 2.843-0.221-2.743c-0.002-0.205-0.060-0.406-0.169-0.581-0.053-0.064-0.119-0.114-0.195-0.147s-0.158-0.048-0.24-0.043c-0.215 0.002-0.421 0.083-0.581 0.227-0.173 0.141-0.294 0.336-0.345 0.553-0.026 0.143-0.026 0.29 0 0.432l0.535 3.493c0.022 0.215 0.092 0.421 0.206 0.605 0.065 0.076 0.148 0.134 0.242 0.17s0.194 0.048 0.294 0.035c0.219 0.010 0.433-0.060 0.605-0.197 0.183-0.165 0.337-0.359 0.457-0.575l2.099-3.444c0.106-0.16 0.186-0.335 0.236-0.52 0.029-0.095 0.038-0.195 0.027-0.293s-0.045-0.193-0.096-0.278c-0.056-0.074-0.13-0.131-0.215-0.168s-0.178-0.051-0.269-0.041zM29.668 25.045c-0.175-0.234-0.403-0.422-0.665-0.55-0.302-0.145-0.633-0.217-0.968-0.209-0.372-0.001-0.741 0.072-1.086 0.215-0.351 0.148-0.674 0.352-0.959 0.605-0.296 0.262-0.549 0.568-0.75 0.907-0.204 0.335-0.354 0.701-0.445 1.083-0.092 0.365-0.111 0.744-0.054 1.116 0.049 0.319 0.171 0.622 0.357 0.886 0.187 0.249 0.432 0.448 0.714 0.581 0.317 0.144 0.662 0.215 1.010 0.209 0.322 0.002 0.642-0.039 0.953-0.121 0.279-0.068 0.55-0.169 0.804-0.302 0.213-0.114 0.408-0.26 0.578-0.432 0.136-0.126 0.234-0.287 0.284-0.466 0.023-0.074 0.030-0.152 0.019-0.228s-0.039-0.149-0.082-0.214c-0.050-0.059-0.114-0.105-0.185-0.134s-0.149-0.042-0.226-0.035c-0.11 0.004-0.219 0.032-0.318 0.082l-0.399 0.175c-0.155 0.067-0.314 0.125-0.475 0.175-0.18 0.053-0.366 0.079-0.553 0.079-0.276 0.019-0.549-0.069-0.762-0.245-0.088-0.090-0.153-0.201-0.189-0.322s-0.042-0.249-0.017-0.373h2.776c0.115 0.001 0.231-0.008 0.345-0.024 0.092-0.015 0.18-0.048 0.26-0.097 0.078-0.048 0.142-0.114 0.187-0.194 0.054-0.103 0.092-0.213 0.115-0.327 0.082-0.329 0.098-0.671 0.048-1.007-0.041-0.298-0.15-0.582-0.318-0.832zM28.528 26.493h-2.035c0.105-0.275 0.285-0.515 0.52-0.692 0.211-0.161 0.469-0.249 0.735-0.251 0.114-0.003 0.227 0.019 0.332 0.064s0.198 0.113 0.273 0.199c0.080 0.092 0.137 0.202 0.168 0.32s0.033 0.242 0.008 0.361zM34.879 25.099c0.026-0.094 0.030-0.192 0.011-0.288s-0.059-0.185-0.117-0.263c-0.059-0.075-0.135-0.135-0.222-0.175s-0.182-0.059-0.277-0.055c-0.442 0.030-0.857 0.219-1.17 0.532-0.024-0.142-0.099-0.271-0.21-0.363s-0.251-0.142-0.395-0.139c-0.514 0-0.862 0.381-1.037 1.143l-0.732 3.172c-0.179 0.768-0.010 1.152 0.508 1.152 0.517 0 0.862-0.384 1.040-1.152l0.378-1.642c0.030-0.133 0.064-0.248 0.094-0.345 0.029-0.089 0.070-0.173 0.121-0.251 0.052-0.071 0.116-0.133 0.187-0.184 0.094-0.065 0.196-0.118 0.302-0.16 0.172-0.073 0.345-0.136 0.514-0.191 0.157-0.049 0.31-0.108 0.46-0.175 0.132-0.058 0.252-0.138 0.357-0.236 0.098-0.106 0.162-0.239 0.184-0.381h0.003zM39.439 24.349c-0.156-0.003-0.307 0.049-0.429 0.145-0.155 0.138-0.288 0.299-0.393 0.478l-1.53 2.513-0.324-2.386c-0.020-0.198-0.077-0.39-0.169-0.566-0.048-0.070-0.115-0.125-0.192-0.159s-0.163-0.048-0.247-0.037c-0.216 0.003-0.424 0.084-0.587 0.227-0.175 0.14-0.297 0.335-0.348 0.553-0.017 0.072-0.027 0.144-0.030 0.218-0.011 0.074-0.011 0.15 0 0.224l0.702 3.716-0.965 1.409c-0.116 0.164-0.201 0.347-0.251 0.541-0.030 0.092-0.039 0.19-0.027 0.286s0.047 0.189 0.099 0.27c0.063 0.073 0.143 0.129 0.232 0.165s0.186 0.050 0.282 0.041c0.164 0.003 0.323-0.059 0.441-0.172 0.147-0.14 0.275-0.298 0.384-0.469l3.668-5.706c0.113-0.17 0.199-0.357 0.254-0.553 0.030-0.092 0.039-0.189 0.025-0.284s-0.049-0.186-0.104-0.266c-0.063-0.067-0.14-0.119-0.226-0.151s-0.178-0.045-0.27-0.036h0.003zM49.328 23.384c0.115-0.506-0.203-0.758-0.953-0.756h-2.761c-0.75 0-1.185 0.251-1.3 0.756s0.203 0.744 0.953 0.744h0.59l-1.052 4.554c-0.178 0.768 0 1.155 0.526 1.155s0.883-0.387 1.061-1.155l1.049-4.554h0.587c0.752 0 1.184-0.248 1.297-0.744h0.003zM51.774 24.319c-0.442 0.030-0.857 0.219-1.17 0.532-0.024-0.142-0.099-0.271-0.21-0.363s-0.251-0.142-0.395-0.139c-0.516 0-0.862 0.381-1.037 1.143l-0.735 3.172c-0.175 0.768-0.006 1.152 0.508 1.152 0.517 0 0.862-0.384 1.040-1.152l0.381-1.642c0.025-0.116 0.056-0.232 0.094-0.345 0.028-0.089 0.069-0.174 0.121-0.251 0.050-0.072 0.113-0.134 0.184-0.184 0.095-0.064 0.196-0.118 0.302-0.16 0.172-0.073 0.345-0.136 0.514-0.191 0.157-0.049 0.312-0.108 0.463-0.175 0.131-0.058 0.252-0.138 0.357-0.236 0.098-0.106 0.162-0.239 0.184-0.381 0.026-0.093 0.031-0.192 0.013-0.287s-0.057-0.186-0.116-0.263c-0.059-0.075-0.136-0.136-0.223-0.176s-0.183-0.059-0.279-0.054h0.003zM57.498 24.349c-0.171 0.011-0.337 0.062-0.485 0.149s-0.273 0.208-0.365 0.353c-0.114-0.187-0.278-0.339-0.474-0.438s-0.414-0.142-0.633-0.124c-0.336 0.002-0.668 0.074-0.974 0.212-0.332 0.144-0.638 0.342-0.907 0.584-0.283 0.259-0.526 0.557-0.723 0.886-0.208 0.345-0.359 0.72-0.448 1.113-0.093 0.369-0.119 0.753-0.076 1.131 0.035 0.313 0.138 0.614 0.302 0.883 0.149 0.239 0.357 0.435 0.605 0.568 0.262 0.136 0.554 0.205 0.849 0.203 0.267-0 0.532-0.054 0.778-0.158s0.469-0.256 0.655-0.447c0.014 0.151 0.083 0.291 0.195 0.393s0.258 0.158 0.41 0.157c0.511 0 0.853-0.384 1.031-1.152l0.732-3.172c0.091-0.279 0.097-0.579 0.018-0.862-0.045-0.091-0.116-0.167-0.205-0.217s-0.19-0.071-0.291-0.062h0.003zM56.086 27.071c-0.070 0.358-0.242 0.688-0.496 0.95-0.102 0.109-0.225 0.196-0.361 0.257s-0.283 0.094-0.432 0.097c-0.127 0.007-0.254-0.022-0.367-0.084s-0.205-0.153-0.268-0.264c-0.142-0.299-0.165-0.641-0.063-0.956 0.068-0.355 0.245-0.68 0.505-0.931 0.209-0.211 0.492-0.333 0.789-0.339 0.125-0.006 0.25 0.023 0.359 0.083s0.201 0.15 0.263 0.259c0.141 0.286 0.165 0.616 0.067 0.919l0.003 0.009zM62.706 24.328c-0.274-0.005-0.547 0.036-0.807 0.121-0.252 0.089-0.482 0.229-0.677 0.411-0.025-0.145-0.101-0.275-0.215-0.368s-0.258-0.14-0.404-0.134c-0.514 0-0.862 0.381-1.037 1.143l-0.732 3.172c-0.179 0.768-0.010 1.152 0.508 1.152 0.517 0 0.861-0.384 1.040-1.152l0.414-1.814c0.060-0.329 0.197-0.64 0.399-0.907 0.087-0.1 0.195-0.178 0.317-0.231s0.253-0.077 0.385-0.072c0.302 0 0.508 0.1 0.583 0.302 0.074 0.306 0.062 0.626-0.033 0.925l-0.412 1.781c-0.178 0.768 0 1.152 0.508 1.152s0.862-0.384 1.041-1.152l0.526-2.256c0.157-0.687 0.115-1.207-0.127-1.557-0.248-0.351-0.671-0.526-1.279-0.526l0.003 0.009zM69.271 24.966c-0.068-0.142-0.172-0.263-0.302-0.351-0.155-0.114-0.329-0.199-0.514-0.251-0.232-0.067-0.473-0.1-0.714-0.097-0.277-0.002-0.552 0.044-0.813 0.136-0.249 0.086-0.482 0.209-0.693 0.366-0.203 0.151-0.379 0.334-0.523 0.541-0.142 0.199-0.244 0.422-0.302 0.659-0.047 0.179-0.058 0.367-0.030 0.55 0.030 0.152 0.094 0.296 0.187 0.42 0.105 0.136 0.234 0.252 0.381 0.342 0.181 0.111 0.367 0.212 0.559 0.302 0.254 0.115 0.442 0.209 0.566 0.281 0.056 0.025 0.101 0.069 0.127 0.125s0.031 0.119 0.014 0.178c-0.025 0.095-0.086 0.176-0.169 0.227-0.1 0.065-0.217 0.097-0.336 0.094-0.117 0.001-0.234-0.023-0.341-0.070-0.11-0.047-0.218-0.1-0.321-0.16s-0.211-0.114-0.321-0.16c-0.108-0.046-0.225-0.069-0.342-0.070-0.175 0.006-0.341 0.079-0.463 0.206-0.136 0.134-0.229 0.306-0.269 0.493-0.039 0.152-0.028 0.312 0.030 0.457 0.065 0.149 0.17 0.276 0.302 0.369 0.166 0.114 0.35 0.199 0.545 0.251 0.541 0.139 1.11 0.123 1.642-0.045 0.268-0.088 0.522-0.218 0.75-0.384 0.216-0.158 0.404-0.352 0.556-0.572 0.145-0.213 0.247-0.453 0.302-0.705 0.048-0.15 0.063-0.309 0.044-0.466s-0.073-0.307-0.156-0.441c-0.213-0.28-0.494-0.501-0.816-0.641-0.148-0.073-0.278-0.133-0.399-0.181-0.103-0.040-0.205-0.086-0.302-0.139-0.071-0.034-0.133-0.084-0.181-0.145-0.019-0.026-0.032-0.057-0.037-0.089s-0.003-0.065 0.007-0.096c0.009-0.039 0.026-0.076 0.049-0.109s0.053-0.060 0.087-0.082c0.082-0.057 0.179-0.085 0.278-0.082 0.104 0 0.206 0.021 0.302 0.060 0.1 0.039 0.197 0.085 0.302 0.13s0.194 0.091 0.284 0.13c0.087 0.038 0.18 0.059 0.275 0.060 0.183-0.003 0.358-0.070 0.496-0.191 0.15-0.118 0.257-0.283 0.302-0.469 0.028-0.133 0.011-0.271-0.049-0.393l0.003 0.009zM4.872 26.097c-0.336 1.421-1.128 2.147-2.386 2.147h-0.726l0.962-4.116h0.696c1.274 0 1.759 0.656 1.455 1.969z"></path>
            <path fill="#ffd200" style="fill: var(--color2, #ffd200)"
                d="M34.475 7.378l-3.756 2.244c-0.145 0.086-0.258 0.218-0.321 0.375s-0.073 0.33-0.028 0.493c0.045 0.163 0.142 0.306 0.277 0.409s0.299 0.157 0.468 0.157h19.816c0.204 0 0.401-0.081 0.545-0.226s0.226-0.341 0.226-0.545c0-0.204-0.081-0.401-0.226-0.545s-0.341-0.226-0.545-0.226h-17.025l3.759-2.256c0.146-0.086 0.259-0.217 0.323-0.374s0.073-0.33 0.028-0.493c-0.045-0.163-0.143-0.307-0.278-0.408s-0.3-0.156-0.469-0.155h-22.828c-0.426 0-1.155 0.345-1.155 0.771s0.729 0.768 1.155 0.768l20.034 0.012z"></path>
        </symbol>
        <symbol id="icon-calc" viewBox="0 0 26 32">
            <path
                d="M4.57 0h16c2.524 0 4.57 2.046 4.57 4.57v22.86c0 2.524-2.046 4.57-4.57 4.57h-16c-2.524 0-4.57-2.046-4.57-4.57v-22.86c0-2.524 2.046-4.57 4.57-4.57zM6.57 4.57h11.99c1.105 0 2 0.895 2 2v2.84c0 1.105-0.895 2-2 2h-11.99c-1.105 0-2-0.895-2-2v-2.84c0-1.105 0.895-2 2-2zM8.349 14.86h-0.64c-1.105 0-2 0.895-2 2v0.64c0 1.105 0.895 2 2 2h0.64c1.105 0 2-0.895 2-2v-0.64c0-1.105-0.895-2-2-2zM16.859 14.86h0.64c1.105 0 2 0.895 2 2v0.64c0 1.105-0.895 2-2 2h-0.64c-1.105 0-2-0.895-2-2v-0.64c0-1.105 0.895-2 2-2zM17.499 22.86h-0.64c-1.105 0-2 0.895-2 2v0.64c0 1.105 0.895 2 2 2h0.64c1.105 0 2-0.895 2-2v-0.64c0-1.105-0.895-2-2-2zM7.709 22.86h0.64c1.105 0 2 0.895 2 2v0.64c0 1.105-0.895 2-2 2h-0.64c-1.105 0-2-0.895-2-2v-0.64c0-1.105 0.895-2 2-2z"></path>
        </symbol>
        <symbol id="icon-call" viewBox="0 0 28 32">
            <path
                d="M20.961 32h-14.718c-3.448 0-6.243-2.795-6.243-6.243 0-1.79 0.768-3.494 2.11-4.679l2.762-2.44c5.234-4.624 13.132-4.488 18.204 0.313l2.237 2.118c1.264 1.196 1.98 2.86 1.98 4.599 0 3.498-2.835 6.333-6.333 6.333z"></path>
            <path
                d="M20.352 6.588c0 3.639-2.95 6.588-6.588 6.588s-6.588-2.95-6.588-6.588c0-3.639 2.95-6.588 6.588-6.588s6.588 2.95 6.588 6.588z"></path>
        </symbol>
        <symbol id="icon-down-arrow" viewBox="0 0 53 32">
            <path
                d="M52.226 1.127c-0.354-0.357-0.775-0.64-1.24-0.834s-0.962-0.293-1.465-0.293c-0.503 0-1.001 0.1-1.465 0.293s-0.885 0.477-1.24 0.834l-17.446 17.446c-0.354 0.357-0.775 0.64-1.24 0.834s-0.962 0.293-1.465 0.293-1.001-0.1-1.465-0.293c-0.464-0.193-0.885-0.477-1.24-0.834l-17.446-17.446c-0.354-0.357-0.775-0.64-1.24-0.834s-0.962-0.293-1.465-0.293c-0.503 0-1.001 0.1-1.465 0.293s-0.885 0.477-1.24 0.834c-0.709 0.714-1.108 1.679-1.108 2.685s0.398 1.972 1.108 2.685l17.484 17.484c2.143 2.14 5.047 3.342 8.075 3.342s5.933-1.202 8.075-3.342l17.484-17.484c0.709-0.714 1.108-1.679 1.108-2.685s-0.398-1.972-1.108-2.685z"></path>
        </symbol>
        <symbol id="icon-mail" viewBox="0 0 32 32">
            <path
                d="M18.816 16.291c-0.828 0.571-1.81 0.876-2.816 0.876s-1.988-0.305-2.816-0.876l-9.934-6.773c-0.159 0.479-0.243 0.979-0.25 1.483v10c0.002 1.326 0.529 2.596 1.466 3.534s2.208 1.465 3.534 1.466h16c1.326-0.002 2.596-0.529 3.534-1.466s1.465-2.208 1.466-3.534v-10c-0.007-0.504-0.091-1.004-0.25-1.483l-9.934 6.773z"></path>
            <path
                d="M14.314 14.638c0.497 0.342 1.086 0.525 1.689 0.525s1.192-0.183 1.689-0.525l10.087-6.878c-0.464-0.549-1.043-0.991-1.695-1.295s-1.362-0.463-2.081-0.465h-16c-0.719 0.002-1.429 0.161-2.081 0.465s-1.23 0.746-1.695 1.295l10.087 6.878z"></path>
        </symbol>
        <symbol id="icon-phone" viewBox="0 0 32 32">
            <path
                d="M27.532 19.846c-0.771-0.734-1.795-1.142-2.86-1.141s-2.087 0.413-2.856 1.149l-2.546 2.145c-2.078-0.86-3.965-2.122-5.554-3.714s-2.848-3.481-3.704-5.561l2.137-2.538c0.734-0.771 1.144-1.794 1.145-2.858s-0.406-2.089-1.137-2.862c0 0-2.473-3.21-2.515-3.251-0.762-0.767-1.795-1.204-2.876-1.215s-2.123 0.403-2.901 1.154l-1.536 1.336c-10.309 10.967 16.293 37.587 27.245 27.117l1.218-1.403c0.774-0.776 1.208-1.827 1.208-2.924s-0.434-2.147-1.208-2.923c-0.044-0.036-3.26-2.511-3.26-2.511z"></path>
        </symbol>
    </defs>
</svg>